#!OML:ASF F:\VICON\USERDATA\INSTALL\rory3\rory3.ASF
:FULLY-SPECIFIED
:DEGREES
1160
root 0.641428 15.459 3.31058 8.02774 -51.1 16.2223
lowerback 4.9414 8.77949 7.36466
upperback 4.78705 11.9378 -3.66567
thorax 4.61771 6.36007 -7.77941
lowerneck -2.0158 -4.34797 -4.59565
upperneck 51.7663 -12.773 9.9236
head 24.3895 -4.98787 4.28285
rclavicle -1.19271e-013 -3.18055e-015
rhumerus -49.1514 54.5051 -131.913
rradius 90.0164
rwrist -28.105
rhand 26.0379 -27.437
rfingers 7.12502
rthumb 50.1123 -48.6006
lclavicle -1.19271e-013 -3.18055e-015
lhumerus -15.8621 -77.09 96.4272
lradius 100.391
lwrist 28.478
lhand -3.47638 -20.7504
lfingers 7.12502
lthumb 22.2567 7.98798
rfemur -68.6397 -8.2632 10.8455
rtibia 87.9067
rfoot -9.25184 -11.0921
rtoes -33.2398
lfemur -57.5018 -22.7076 -27.6665
ltibia 61.1852
lfoot -22.2892 9.11519
ltoes 6.94291
1161
root 0.645613 15.4517 3.29308 8.30676 -51.0128 15.9084
lowerback 5.0926 8.75191 7.49559
upperback 4.73767 11.9112 -3.59761
thorax 4.48829 6.34321 -7.81004
lowerneck -2.09118 -4.38124 -4.5494
upperneck 51.7496 -12.7761 9.8122
head 24.3635 -4.98255 4.20004
rclavicle -7.15625e-014 -2.22639e-014
rhumerus -49.6883 54.2585 -132.185
rradius 90.263
rwrist -27.7662
rhand 26.163 -27.082
rfingers 7.12502
rthumb 50.2268 -48.1848
lclavicle -7.15625e-014 -2.22639e-014
lhumerus -15.7517 -77.0919 96.3547
lradius 100.324
lwrist 28.353
lhand -3.08888 -21.0118
lfingers 7.12502
lthumb 22.6287 7.68174
rfemur -68.6876 -8.02282 10.8335
rtibia 88.0094
rfoot -10.7252 -9.9561
rtoes -27.2129
lfemur -57.7034 -22.6588 -27.367
ltibia 61.2619
lfoot -22.2576 8.98976
ltoes 7.13809
1162
root 0.64707 15.4493 3.28867 8.49164 -51.0093 15.6575
lowerback 5.06279 8.72466 7.69004
upperback 4.75561 11.8773 -3.5458
thorax 4.54829 6.33484 -7.85334
lowerneck -2.09531 -4.36176 -4.49809
upperneck 51.7097 -12.6578 9.65067
head 24.2302 -4.9358 4.10555
rclavicle -4.29375e-014 5.88403e-014
rhumerus -49.239 54.534 -131.926
rradius 90.0846
rwrist -28.106
rhand 26.425 -26.9337
rfingers 7.12502
rthumb 50.4661 -47.9082
lclavicle -4.29375e-014 5.88403e-014
lhumerus -15.8758 -77.0196 96.4883
lradius 100.29
lwrist 28.3405
lhand -2.60949 -20.9474
lfingers 7.12502
lthumb 23.0887 7.6893
rfemur -68.7954 -8.00138 11.264
rtibia 87.9282
rfoot -9.43535 -11.2163
rtoes -32.4575
lfemur -57.7875 -22.6664 -27.153
ltibia 61.3492
lfoot -22.3087 9.04988
ltoes 6.96057
1163
root 0.64704 15.4571 3.29772 8.43752 -51.0569 15.7081
lowerback 4.84164 8.72574 7.76387
upperback 4.82425 11.8677 -3.54448
thorax 4.75931 6.34285 -7.84638
lowerneck -2.09302 -4.33475 -4.51192
upperneck 51.7065 -12.5559 9.55277
head 24.1729 -4.90616 4.06664
rclavicle 5.96354e-014 -1.74931e-014
rhumerus -49.5673 54.5108 -132.104
rradius 90.2367
rwrist -28.0692
rhand 26.4147 -26.6907
rfingers 7.12502
rthumb 50.4567 -47.6702
lclavicle 5.96354e-014 -1.74931e-014
lhumerus -15.667 -77.0155 96.2605
lradius 100.333
lwrist 28.4373
lhand -2.76167 -20.7641
lfingers 7.12502
lthumb 22.9427 7.89074
rfemur -68.715 -8.09092 11.2699
rtibia 87.847
rfoot -9.0473 -11.4687
rtoes -34.4471
lfemur -57.7702 -22.805 -27.0623
ltibia 61.415
lfoot -22.6222 8.62927
ltoes 8.22378
1164
root 0.647711 15.4676 3.3065 8.40674 -51.1175 15.7007
lowerback 4.68276 8.75875 7.88886
upperback 4.88124 11.9068 -3.56961
thorax 4.95135 6.37789 -7.9022
lowerneck -2.07257 -4.31765 -4.52346
upperneck 51.6616 -12.553 9.63634
head 24.1353 -4.90159 4.11557
rclavicle 6.52014e-014 6.36111e-015
rhumerus -49.0179 54.6836 -131.803
rradius 90.0163
rwrist -28.3688
rhand 26.4326 -26.7674
rfingers 7.12502
rthumb 50.4731 -47.7382
lclavicle 6.52014e-014 6.36111e-015
lhumerus -15.2615 -77.075 95.8284
lradius 100.358
lwrist 28.5783
lhand -2.69698 -20.6903
lfingers 7.12502
lthumb 23.0048 7.95683
rfemur -68.5552 -8.11005 11.1966
rtibia 87.7705
rfoot -9.38868 -11.1534
rtoes -34.0223
lfemur -57.7514 -23.0003 -26.8037
ltibia 61.4762
lfoot -22.9441 7.93902
ltoes 10.0785
